<svg width="210" height="111" viewBox="0 0 210 111" fill="none" xmlns="http://www.w3.org/2000/svg">
<path d="M66.632 29.568C63.688 26.624 59.784 25.024 55.624 25.024C52.168 25.024 48.904 26.176 46.152 28.288L45.576 28.736L51.08 34.24L51.528 33.984C52.744 33.216 54.216 32.832 55.688 32.832C57.8 32.832 59.784 33.664 61.256 35.136C62.728 36.608 63.56 38.592 63.56 40.704C63.56 42.176 63.176 43.648 62.408 44.864L62.152 45.312L67.656 50.816L68.104 50.24C70.216 47.488 71.368 44.224 71.368 40.768C71.368 36.608 69.768 32.704 66.824 29.76L66.632 29.568ZM60.04 47.296C58.824 48.064 57.352 48.448 55.88 48.448C53.768 48.448 51.784 47.616 50.312 46.144C48.84 44.672 48.008 42.688 48.008 40.576C48.008 39.104 48.392 37.632 49.16 36.416L49.416 35.968L43.912 30.464L43.464 31.04C41.352 33.792 40.2 37.056 40.2 40.512C40.2 44.672 41.8 48.576 44.744 51.52C47.688 54.464 51.592 56.064 55.752 56.064C59.208 56.064 62.472 54.912 65.224 52.8L65.8 52.352L60.296 46.848L60.04 47.296ZM77.575 56H85.255V45.888L77.575 38.208V56ZM98.631 31.616L98.439 31.808V44.672L78.919 25.152L78.727 24.96H77.511V34.624L85.191 42.304L90.119 47.232L98.567 55.68L98.887 56H106.119V24.128L98.631 31.616ZM121.345 48.32H120.193V25.024H112.513V56H129.025L121.537 48.512L121.345 48.32ZM124.865 48.32L132.545 56H134.081V48.32H124.865ZM143.538 56H151.218V53.248L143.538 45.568V56ZM157.49 24.96L147.378 35.072L137.458 25.152L137.266 24.96H126.386L143.474 42.048L150.066 48.64L151.154 49.664V42.048L168.242 24.96H157.49Z" fill="white"/>
<path d="M49.416 72.84C49.672 72.52 49.928 72.2 50.184 71.944C51.656 70.472 53.64 69.64 55.752 69.64C57.864 69.64 59.848 70.472 61.32 71.944C62.024 72.648 62.6 73.48 62.984 74.44L63.112 74.824H71.048L70.856 74.056C70.024 70.216 67.784 66.888 64.52 64.648C61.896 62.856 58.824 61.896 55.688 61.896C51.144 61.896 46.856 63.88 43.912 67.4L43.528 67.848L49.032 73.352L49.416 72.84ZM57.352 80.008L60.168 83.848C58.888 84.744 57.352 85.192 55.752 85.192C53.64 85.192 51.656 84.36 50.184 82.888C48.712 81.416 47.88 79.432 47.88 77.32C47.88 76.936 47.88 76.552 47.944 76.168L48.008 75.848L42.056 69.896L41.672 70.664C40.648 72.776 40.136 75.016 40.136 77.384C40.136 81.544 41.736 85.448 44.68 88.392C47.624 91.336 51.528 92.936 55.688 92.936C58.44 92.936 61.128 92.232 63.496 90.824V92.872H71.176V80.008H57.352ZM85.255 85.32V83.144L77.575 75.464V93H103.431V85.32H85.255ZM103.431 81.352V73.672H90.055L86.023 69.64H103.367V61.96H77.511V71.944L86.855 81.288L103.431 81.352ZM117.505 85.32V83.144L109.825 75.464V93H135.681V85.32H117.505ZM135.681 81.352V73.672H122.305L118.273 69.64H135.617V61.96H109.761V71.944L119.105 81.288L135.681 81.352ZM142.075 93H149.755V83.08L142.075 75.4V93ZM160.251 79.24L172.795 70.92L173.051 70.728V61.512L154.683 73.672L142.395 62.024H142.011V71.944L163.131 93.064H174.011L160.251 79.24Z" fill="url(#paint0_linear_328_24)"/>
<defs>
<linearGradient id="paint0_linear_328_24" x1="41.5" y1="93" x2="171.5" y2="69" gradientUnits="userSpaceOnUse">
<stop stop-color="#3D77F1"/>
<stop offset="0.515625" stop-color="#FF8A2B"/>
<stop offset="1" stop-color="#3CF6E9"/>
</linearGradient>
</defs>
</svg>
